<?xml version="1.0" encoding="UTF-8"?><svg id="a" xmlns="http://www.w3.org/2000/svg" viewBox="0 0 252 144"><defs><style>.b{letter-spacing:.02em;}.c,.d,.e{fill:#231f20;}.f{letter-spacing:-.14em;}.g{letter-spacing:0em;}.d{font-family:RobotoCondensed-Regular, Roboto Condensed;font-size:6px;}.e{font-family:RobotoCondensed-Bold, Roboto Condensed;font-size:18.3px;}</style></defs><text class="e" transform="translate(162.86 96.45)"><tspan x="0" y="0">CAIT</tspan><tspan class="f" x="36.25" y="0">L</tspan><tspan x="42.51" y="0">YN</tspan></text><text class="d" transform="translate(168.37 123.07)"><tspan x="0" y="0">a</tspan><tspan class="b" x="2.87" y="0">r</tspan><tspan x="4.85" y="0">tist</tspan></text><text class="d" transform="translate(168.06 130.66)"><tspan x="0" y="0">chaley792@gmail.com</tspan></text><text class="e" transform="translate(163.45 113.84)"><tspan class="g" x="0" y="0">H</tspan><tspan x="11.39" y="0">ALEY</tspan></text><path class="c" d="M60.5,0c-1.11,3.33-1.87,6.77-2.14,10.35-.46,6.19,.69,12.1,3.37,17.71,2.93,6.12,6.91,11.5,12.11,15.81,7.1,5.88,15.17,7.04,23.8,3.89,3.21-1.18,6.3-2.7,9.5-3.92,3.14-1.2,6.06-.57,8.48,1.75,2.45,2.35,3.12,5.28,2.03,8.5-.34,.99-.95,1.99-1.69,2.73-19.33,19.38-38.69,38.73-58.05,58.09-1.67,.62-3.3,1.43-5.03,1.81-1.8,.39-3.6-.13-5.15-1.16-3.49-2.31-4.7-6.3-3.11-10.18,1.17-2.85,2.33-5.71,3.59-8.52,1.91-4.24,1.87-8.5,.54-12.9-1.72-5.68-4.6-10.62-8.8-14.82-8.75-8.76-16.18-18.5-21.59-29.69C13.45,29.29,10.62,18.56,10.01,7.26c-.13-2.44-.16-4.86-.1-7.26"/></svg>