<?xml version="1.0" encoding="UTF-8"?><svg id="a" xmlns="http://www.w3.org/2000/svg" viewBox="0 0 252 144"><path d="M149.41,35.78c0,5.46-.02,10.92,.01,16.38,0,1.53-1.07,2.92-2.54,3.24-1.59,.35-3.12-.41-3.76-1.9-.59-1.35-1.06-2.75-1.71-4.07-1.66-3.36-4.41-5.25-8.15-5.47-3.16-.19-6.24,.32-9.12,1.7-2.91,1.39-5.04,3.59-6.57,6.4-1.62,2.97-2.47,6.19-2.99,9.52-.74,4.74-.71,9.51-.55,14.27,.13,3.81,.62,7.57,1.79,11.22,.82,2.56,1.97,4.96,3.73,7.02,1.64,1.91,3.67,3.27,6.04,4.11,2.6,.92,5.28,1.32,8.01,1.06,3.72-.35,6.37-2.33,7.94-5.71,.58-1.26,1.03-2.58,1.6-3.85,.56-1.24,1.58-1.9,2.93-1.93,1.38-.03,2.41,.62,3.02,1.85,.19,.38,.3,.84,.3,1.27,.02,11.1,.01,22.2,.01,33.3-.3,.66-.54,1.36-.92,1.96-.4,.63-1.07,.99-1.81,1.14-1.66,.34-3.15-.46-3.81-2.03-.48-1.15-.97-2.3-1.41-3.47-.67-1.76-1.9-2.97-3.54-3.85-2.12-1.13-4.37-1.72-6.77-1.73-5.02,0-9.94-.66-14.7-2.32-4.33-1.51-8.21-3.77-11.63-6.83-4.92-4.41-8.26-9.82-10.33-16.06-1.41-4.26-2.19-8.64-2.49-13.11-.26-3.95-.26-7.91-.04-11.86,.31-5.77,1.4-11.39,3.63-16.74,1.58-3.8,3.72-7.27,6.47-10.34,3.66-4.09,8.03-7.14,13.13-9.14,3.03-1.19,6.16-1.94,9.38-2.36,2.33-.3,4.66-.4,7.01-.44,3.11-.05,5.88-1.09,8.29-3.06,.79-.65,1.2-1.6,1.59-2.52,.5-1.17,.96-2.37,1.45-3.54,.97-2.33,4.13-2.74,5.66-.73,.22,.29,.33,.66,.53,.97,.41,.64,.32,1.35,.32,2.05,0,5.2,0,10.4,0,15.59Z"/></svg>