<?xml version="1.0" encoding="UTF-8"?><svg id="a" xmlns="http://www.w3.org/2000/svg" viewBox="0 0 252 144"><defs><style>.b{fill:#fff;}.c{fill:#231f20;}</style></defs><rect class="c" width="252" height="144"/><path class="b" d="M9.91,144c.38-13.57,3.91-26.46,10.08-38.77,4.96-9.89,11.24-18.89,18.52-27.2,6.44-7.35,13.35-14.24,20.61-20.77,10.59-9.52,22.3-17.41,35.53-22.87,9.39-3.87,19.15-6.19,29.32-6.76,13.5-.75,26.45,1.56,38.84,6.97,7.34,3.21,14.14,7.36,20.48,12.25,4.59,3.53,8.83,7.44,12.99,11.46,5.5,5.33,12.16,8.36,19.78,9.13,2.51,.25,4.88-.7,7.18-1.63,2.92-1.17,5.8-2.45,8.71-3.65,5.75-2.36,11.98,2.43,11.14,8.59-.12,.89-.59,1.73-.78,2.61-.4,1.84-1.79,2.92-3.01,4.14-9.06,9.07-18.13,18.13-27.19,27.2-9.52,9.52-19.08,19.01-28.54,28.59-2.64,2.68-6.96,3.22-10.08,1.23-3.38-2.16-4.72-6.16-3.24-9.88,1.33-3.37,2.96-6.64,4.12-10.07,2.97-8.76,1.46-16.85-4.67-23.75-5.18-5.83-11.44-10.31-18.88-12.95-7.5-2.66-15.06-2.53-22.63-.3-8.01,2.36-15.11,6.49-21.81,11.38-9.55,6.97-17.81,15.34-25.85,23.93-6.42,6.86-12.12,14.29-16.44,22.7-1.4,2.73-2.63,5.53-3.59,8.4"/></svg>